<svg width="107" height="36" viewBox="0 0 107 36" fill="none" xmlns="http://www.w3.org/2000/svg">
<path d="M22.1999 0.5C16.9786 5.68121 14.1039 16.1286 14.1039 23.4554V35.5L20.1014 28.3782V23.4554C20.1014 17.7185 22.3521 12.3226 26.4432 8.26566L22.1999 0.5ZM4.68642 0.5C9.90742 5.68121 12.7821 16.1286 12.7821 23.4554V35.5L6.78447 28.3782V23.4554C6.78447 17.7185 4.53402 12.3226 0.443115 8.26566L4.68642 0.5Z" fill="#FFEA00"/>
<path d="M31.0994 22.1362V33.9151H33.0516V23.9372H33.2531L36.417 33.9151H39.9511V22.1362H37.9989V32.1141H37.7973L34.6171 22.1362H31.0994ZM42.1377 22.1362V33.9151H49.8622V32.1316H44.0899V28.8834H49.3068V27.0999H44.0899V23.9196H49.7778V22.1362H42.1377ZM50.6696 22.1362V23.9196H54.3549V33.9151H56.3071V23.9196H59.9913V22.1362H50.6696ZM60.5472 22.1362L62.2968 33.9151H65.545L67.3285 23.97H67.53L69.3135 33.9151H72.5781L74.3112 22.1362H72.3426L70.9634 32.0812H70.7607L68.9772 22.1362H65.8813L64.0978 32.0812H63.8951L62.5159 22.1362H60.5472ZM75.2873 26.7472V29.3041C75.2873 32.3671 77.0708 34.1506 79.9991 34.1506C82.9439 34.1506 84.7109 32.3671 84.7109 29.3041V26.7472C84.7109 23.7181 82.9099 21.9006 79.9991 21.9006C77.0708 21.9006 75.2873 23.7181 75.2873 26.7472ZM77.2395 26.6792C77.2395 24.8289 78.1817 23.6677 79.9991 23.6677C81.7991 23.6677 82.7587 24.795 82.7587 26.6792V29.372C82.7587 31.2223 81.9009 32.3836 79.9991 32.3836C78.1313 32.3836 77.2395 31.2563 77.2395 29.372V26.6792ZM95.2111 25.7371C95.2111 23.5669 93.696 22.1362 91.5083 22.1362H86.4602V33.9151H88.4124V29.3216H90.5497L92.8886 33.9151H95.0424L92.5348 29.2033C94.1342 28.8166 95.2111 27.5381 95.2111 25.7371ZM88.4124 23.9196H91.3067C92.5348 23.9196 93.2589 24.5934 93.2589 25.7371C93.2589 26.8644 92.5184 27.5381 91.3067 27.5381H88.4124V23.9196ZM106.771 22.1362H104.112L98.9794 27.0495H98.7778V22.1362H96.8256V33.9151H98.7778V29.6415L100.275 28.2447L104.264 33.9151H106.636L101.656 26.9323L106.771 22.1362Z" fill="white"/>
<path d="M31.0994 9.3587C31.0994 12.585 33.0281 14.355 36.0432 14.355C39.0754 14.355 40.7234 12.6546 40.7234 9.83232V7.90477H35.5513V9.72732H38.6897V9.88481C38.6897 11.4803 37.9354 12.5142 36.0432 12.5142C34.167 12.5142 33.133 11.357 33.133 9.44658V6.5022C33.133 4.66139 34.2024 3.43456 36.0432 3.43456C37.8486 3.43456 38.6897 4.48564 38.6897 6.0982V6.25683H40.7234V6.11646C40.7234 3.32957 39.0401 1.59375 36.0432 1.59375C32.9927 1.59375 31.0994 3.4688 31.0994 6.59007V9.3587ZM42.09 6.64257V9.30621C42.09 12.4971 43.9479 14.355 46.9985 14.355C50.0661 14.355 51.9069 12.4971 51.9069 9.30621V6.64257C51.9069 3.48706 50.0307 1.59375 46.9985 1.59375C43.9479 1.59375 42.09 3.48706 42.09 6.64257ZM44.1237 6.57181C44.1237 4.64427 45.1052 3.43456 46.9985 3.43456C48.8735 3.43456 49.8732 4.60889 49.8732 6.57181V9.37696C49.8732 11.3045 48.9796 12.5142 46.9985 12.5142C45.0527 12.5142 44.1237 11.3399 44.1237 9.37696V6.57181ZM56.1312 1.83911L52.5032 14.1097H54.6236L55.4476 11.2703H60.0582L60.8639 14.1097H62.9854L59.3746 1.83911H56.1312ZM55.9566 9.41234L57.6388 3.57493H57.8487L59.5492 9.41234H55.9566ZM62.3541 1.83911V3.69704H66.1932V14.1097H68.2268V3.69704H72.0648V1.83911H62.3541Z" fill="white"/>
</svg>