<svg xmlns="http://www.w3.org/2000/svg" width="755" height="80" fill="none"><mask id="a" width="84" height="80" x="0" y="0" maskUnits="userSpaceOnUse" style="mask-type:luminance"><path fill="#fff" d="M83.34 0H0v79.972h83.34V0Z"/></mask><g fill="#000" mask="url(#a)"><path d="M17.269 32.18c7.23.297 14.997 5.724 18.739 10.773 2.701 3.645 4.867 7.614 5.796 11.988h.028c.9-4.374 3.095-8.343 5.796-11.988 3.742-5.049 11.424-10.476 18.74-10.773 5.777-.234 10.499 1.713 14.35 4.617.393.297.815.621.055.783-.844.135-1.716.19-2.588.297-9.145 1.323-17.821 4.725-24.057 12.906-4.044 5.306-6.978 11.745-9.285 17.874a48.008 48.008 0 0 0-.62 1.863c-.675 2.268-1.322 4.509-2.025 6.75-.056.162-.197.594-.338.702h-.056c-.169-.081-.281-.54-.338-.702a307.731 307.731 0 0 1-2.026-6.75c-.196-.621-.421-1.242-.618-1.863-2.308-6.129-5.262-12.636-9.286-17.874C23.13 42.443 14.624 39.2 5.48 37.877c-.872-.08-1.744-.162-2.588-.297-.76-.162-.338-.486.056-.783 4.133-3.115 9.037-4.84 14.322-4.616Zm15.764-6.56 8.694-23.004s.14-.135.197-.135c0 0 .169.027.225.135l8.694 23.004c.197.513-.197.486-.45.35-1.322-.728-4.614-2.132-8.47-2.132-3.854 0-7.146 1.404-8.468 2.133-.254.135-.648.162-.45-.351h.028Z"/></g><path fill="#000" d="M140.49 65.143c-.82.984-1.818 1.942-2.994 2.871a22.647 22.647 0 0 1-3.98 2.42c-1.859.903-3.883 1.6-6.071 2.093-2.188.52-4.526.78-7.015.78-2.297 0-4.444-.302-6.44-.903-1.997-.602-3.802-1.45-5.415-2.544a20.623 20.623 0 0 1-4.349-3.979 23.19 23.19 0 0 1-3.158-5.21c-.958-1.996-1.682-4.198-2.175-6.604-.492-2.407-.752-4.937-.78-7.59v-7.63c.028-2.57.26-5.032.698-7.384.465-2.352 1.135-4.526 2.01-6.522a26.754 26.754 0 0 1 3.036-5.17 20.96 20.96 0 0 1 4.02-4.06 19.55 19.55 0 0 1 5.415-2.79c1.997-.656 4.157-.984 6.482-.984 3.145 0 5.934.423 8.368 1.271 2.434.848 4.513 2.065 6.236 3.651 1.75 1.614 3.131 3.57 4.143 5.866 1.012 2.27 1.655 4.827 1.928 7.672h-9.681c-.246-1.56-.615-2.968-1.108-4.226-.492-1.285-1.148-2.365-1.969-3.24-.875-.93-1.955-1.641-3.241-2.134-1.258-.492-2.748-.738-4.471-.738-1.258 0-2.42.219-3.487.656a9.563 9.563 0 0 0-2.872 1.723c-.984.848-1.846 1.901-2.584 3.159-.711 1.23-1.299 2.612-1.764 4.143a25.491 25.491 0 0 0-.902 4.308 37.898 37.898 0 0 0-.288 4.717v7.712c0 1.888.123 3.679.37 5.375.273 1.695.67 3.268 1.189 4.717.41 1.094.889 2.12 1.436 3.077a12.287 12.287 0 0 0 2.01 2.543 10.11 10.11 0 0 0 3.323 2.215c1.285.52 2.735.794 4.348.82.958 0 1.928-.054 2.913-.163a18.553 18.553 0 0 0 2.831-.616 12.897 12.897 0 0 0 2.42-1.025c.738-.438 1.326-.944 1.764-1.518l.041-11.938h-10.83v-7.67h20.511l.082 22.849ZM189.383 46.6c0 2.406-.219 4.73-.656 6.973a33.574 33.574 0 0 1-1.805 6.359 26.913 26.913 0 0 1-3.159 5.538 20.932 20.932 0 0 1-4.349 4.307c-1.586 1.094-3.35 1.956-5.291 2.585-1.915.629-4.021.943-6.318.943-2.379 0-4.567-.328-6.564-.984-1.969-.684-3.733-1.614-5.291-2.79a19.78 19.78 0 0 1-4.185-4.348 27.083 27.083 0 0 1-2.953-5.58 31.757 31.757 0 0 1-1.723-6.194 39.9 39.9 0 0 1-.575-6.81v-7.876c0-2.434.205-4.786.616-7.056a32.405 32.405 0 0 1 1.846-6.44 26.332 26.332 0 0 1 2.912-5.333 19.777 19.777 0 0 1 4.144-4.266c1.531-1.176 3.268-2.079 5.209-2.708 1.97-.656 4.13-.984 6.482-.984 2.379 0 4.567.328 6.564.984 1.996.656 3.787 1.573 5.374 2.749a19.838 19.838 0 0 1 4.143 4.143 24.914 24.914 0 0 1 2.953 5.21c.876 2.024 1.532 4.198 1.97 6.522a38.35 38.35 0 0 1 .656 7.18V46.6Zm-9.928-7.959a46.87 46.87 0 0 0-.287-4.43 24.679 24.679 0 0 0-.738-4.144c-.41-1.504-.957-2.871-1.641-4.102-.656-1.258-1.463-2.324-2.42-3.2a9.657 9.657 0 0 0-2.913-1.804c-1.094-.438-2.338-.657-3.733-.657-1.34 0-2.543.219-3.61.657a8.557 8.557 0 0 0-2.79 1.722c-.957.903-1.763 1.983-2.42 3.241-.656 1.23-1.162 2.612-1.518 4.143a31.688 31.688 0 0 0-.738 4.185 46.623 46.623 0 0 0-.205 4.39V46.6c0 1.45.068 2.885.205 4.307.137 1.422.369 2.79.697 4.102a21.768 21.768 0 0 0 1.436 4.144c.629 1.257 1.381 2.324 2.256 3.2.848.82 1.819 1.476 2.913 1.968 1.121.465 2.407.698 3.856.698 1.395 0 2.653-.233 3.774-.698 1.149-.465 2.133-1.094 2.954-1.887a11.618 11.618 0 0 0 2.379-3.2 19.144 19.144 0 0 0 1.559-4.143c.328-1.313.561-2.68.697-4.102.164-1.45.26-2.913.287-4.39v-7.958Zm46.883 20.101h-18.747l-4.062 13.743h-10.255l19.445-59.729h8.737l19.117 59.729h-10.215l-4.02-13.743Zm-16.245-8.45h13.825l-6.851-23.63-6.974 23.63Zm78.06-29.372h-18.419v51.565h-9.805V20.92h-18.296v-8.163h46.52v8.164Zm56.158 51.565h-9.887L315.021 31.38l-.041 41.105h-9.969V12.757h10.01l19.28 40.94.082-40.94h9.928v59.729Zm44.995-26.788h-24.695v18.665h28.839v8.123h-38.726V12.757h38.521v8.164h-28.634V37.74h24.695v7.958Zm55.703-24.777H426.59v51.565h-9.805V20.92h-18.296v-8.163h46.52v8.164Zm9.634 51.565-7.794-59.729h9.148l4.102 36.674.287 2.338.41-2.46 5.743-36.552h7.549l5.948 36.715.41 2.462.287-2.503 4.144-36.674h9.189l-7.877 59.729h-9.312l-6.071-36.551-.41-2.83-.452 2.83-5.989 36.55h-9.312ZM540.005 46.6c0 2.406-.219 4.73-.657 6.973a33.5 33.5 0 0 1-1.805 6.359 26.91 26.91 0 0 1-3.158 5.538 20.957 20.957 0 0 1-4.349 4.307c-1.586 1.094-3.35 1.956-5.292 2.585-1.914.629-4.02.943-6.317.943-2.38 0-4.567-.328-6.564-.984-1.969-.684-3.733-1.614-5.292-2.79a19.776 19.776 0 0 1-4.184-4.348 27.087 27.087 0 0 1-2.954-5.58 31.827 31.827 0 0 1-1.723-6.194 39.9 39.9 0 0 1-.574-6.81v-7.876c0-2.434.205-4.786.615-7.056a32.54 32.54 0 0 1 1.846-6.44 26.287 26.287 0 0 1 2.913-5.333 19.795 19.795 0 0 1 4.143-4.266c1.532-1.176 3.268-2.079 5.21-2.708 1.969-.656 4.13-.984 6.482-.984 2.379 0 4.567.328 6.563.984 1.997.656 3.788 1.573 5.374 2.749a19.843 19.843 0 0 1 4.144 4.143 24.914 24.914 0 0 1 2.953 5.21c.875 2.024 1.532 4.198 1.969 6.522a38.27 38.27 0 0 1 .657 7.18V46.6Zm-9.928-7.959a46.87 46.87 0 0 0-.287-4.43 24.78 24.78 0 0 0-.738-4.144c-.411-1.504-.958-2.871-1.641-4.102-.657-1.258-1.463-2.324-2.421-3.2a9.64 9.64 0 0 0-2.912-1.804c-1.094-.438-2.339-.657-3.733-.657-1.34 0-2.544.219-3.61.657a8.547 8.547 0 0 0-2.79 1.722c-.957.903-1.764 1.983-2.42 3.241-.657 1.23-1.162 2.612-1.518 4.143a31.688 31.688 0 0 0-.738 4.185 46.622 46.622 0 0 0-.206 4.39V46.6c0 1.45.069 2.885.206 4.307.136 1.422.369 2.79.697 4.102a21.7 21.7 0 0 0 1.436 4.144c.629 1.257 1.381 2.324 2.256 3.2.848.82 1.819 1.476 2.913 1.968 1.121.465 2.406.698 3.856.698 1.394 0 2.653-.233 3.774-.698 1.148-.465 2.133-1.094 2.953-1.887a11.612 11.612 0 0 0 2.38-3.2 19.144 19.144 0 0 0 1.559-4.143c.328-1.313.56-2.68.697-4.102.164-1.45.26-2.913.287-4.39v-7.958Zm37.94 10.666h-10.092v23.178h-9.845V12.757h18.952c3.091.027 5.935.424 8.533 1.19 2.598.765 4.841 1.887 6.728 3.364 1.859 1.504 3.309 3.377 4.348 5.62 1.039 2.215 1.559 4.813 1.559 7.794 0 2.051-.274 3.91-.821 5.579a15.76 15.76 0 0 1-2.215 4.512 16.202 16.202 0 0 1-3.446 3.528 23.15 23.15 0 0 1-4.471 2.626l12.758 24.983v.533h-10.543l-11.445-23.178Zm-10.092-8.04h9.23c1.751-.028 3.323-.288 4.718-.78 1.422-.52 2.625-1.258 3.61-2.215.875-.82 1.559-1.832 2.051-3.036.492-1.203.738-2.57.738-4.102 0-1.723-.273-3.227-.82-4.512-.52-1.313-1.299-2.407-2.338-3.282-.957-.82-2.12-1.436-3.487-1.846-1.368-.438-2.899-.67-4.595-.698h-9.107v20.47Zm54.8 5.333-6.44 7.22v18.665h-9.969V12.757h9.969v28.1l5.579-7.26 15.752-20.84h12.061l-20.429 26.295 21.455 33.434h-11.815L612.725 46.6Z"/></svg>