<svg width="107" height="36" viewBox="0 0 107 36" fill="none" xmlns="http://www.w3.org/2000/svg">
<path d="M53.8563 19.4498C53.5693 19.7943 53.2201 20.1291 52.8086 20.4544C52.3973 20.77 51.9332 21.0524 51.4165 21.3011C50.7659 21.6168 50.058 21.8609 49.2926 22.0331C48.5271 22.2148 47.7092 22.3057 46.8384 22.3057C46.0348 22.3057 45.2837 22.2005 44.5854 21.99C43.8869 21.7795 43.2554 21.483 42.6909 21.1002C42.1265 20.7176 41.6194 20.2534 41.1697 19.7081C40.7295 19.1628 40.3612 18.5552 40.0646 17.8854C39.7298 17.1872 39.4762 16.4169 39.3039 15.575C39.1318 14.733 39.0409 13.848 39.0314 12.9199V10.2507C39.0409 9.35123 39.1223 8.49024 39.2752 7.66748C39.438 6.84454 39.6723 6.08383 39.9786 5.38556C40.2752 4.72533 40.6291 4.12246 41.0405 3.57714C41.4423 3.04154 41.9155 2.56351 42.447 2.1564C43.0236 1.73409 43.6628 1.40479 44.3413 1.18049C45.0398 0.950854 45.7956 0.836133 46.6088 0.836133C47.7092 0.836133 48.6851 0.984411 49.5365 1.28097C50.3879 1.57753 51.1151 2.00324 51.718 2.55831C52.3302 3.12275 52.8135 3.80697 53.1674 4.6106C53.5215 5.40468 53.7463 6.29922 53.8419 7.29425H50.4551C50.3688 6.74894 50.2397 6.2563 50.0676 5.81595C49.8953 5.36624 49.6657 4.98832 49.3787 4.6824C49.0726 4.35697 48.6946 4.10821 48.2449 3.93594C47.8048 3.76386 47.2833 3.67762 46.6806 3.67762C46.2404 3.67762 45.8338 3.7541 45.4608 3.90726C45.0931 4.04751 44.753 4.2516 44.4562 4.51013C44.1117 4.80668 43.8102 5.17504 43.5519 5.615C43.3032 6.04559 43.0975 6.52886 42.9348 7.06462C42.7914 7.53345 42.686 8.03564 42.6191 8.5714C42.5514 9.11897 42.5179 9.67023 42.5186 10.222V12.9199C42.5186 13.5801 42.5618 14.2068 42.6478 14.7999C42.7436 15.3932 42.8823 15.9434 43.064 16.4505C43.2024 16.822 43.3704 17.1819 43.5664 17.5266C43.7605 17.853 43.9969 18.1522 44.2695 18.4165C44.6017 18.7495 44.997 19.0129 45.4321 19.1915C45.8816 19.3733 46.3887 19.4689 46.9534 19.4785C47.2881 19.4785 47.6278 19.4593 47.9722 19.4211C48.3074 19.3753 48.6385 19.3033 48.9625 19.2059C49.2562 19.1154 49.54 18.9952 49.8093 18.8471C50.0676 18.694 50.2732 18.517 50.4264 18.316L50.4406 14.1398H46.6519V11.4562H53.8276L53.8563 19.4498ZM70.4906 12.963C70.4906 13.805 70.4141 14.6182 70.261 15.4028C70.1176 16.1873 69.9071 16.9288 69.6296 17.6271C69.3394 18.3145 68.9684 18.9649 68.5246 19.5647C68.094 20.1387 67.5815 20.6464 67.0033 21.0715C66.4483 21.4543 65.8312 21.7555 65.152 21.9756C64.4822 22.1957 63.7455 22.3057 62.9419 22.3057C62.1094 22.3057 61.344 22.191 60.6457 21.9613C59.9568 21.7222 59.3397 21.3967 58.7944 20.9854C58.2393 20.5644 57.7514 20.0573 57.3305 19.4642C56.919 18.8709 56.5747 18.2204 56.2972 17.5124C56.0294 16.8331 55.8284 16.1108 55.6944 15.3454C55.5595 14.5585 55.4922 13.7615 55.4934 12.9632V10.2073C55.4934 9.35591 55.5652 8.53296 55.7088 7.73889C55.8522 6.94482 56.0676 6.19367 56.3546 5.48564C56.632 4.80649 56.9717 4.1845 57.3734 3.62006C57.7787 3.0524 58.2675 2.54921 58.8231 2.12752C59.3588 1.71605 59.9664 1.40037 60.6457 1.1803C61.3344 0.950659 62.0903 0.835938 62.9132 0.835938C63.7455 0.835938 64.5109 0.950659 65.2094 1.1803C65.9078 1.40993 66.5345 1.73049 67.0894 2.14196C67.6416 2.55066 68.1301 3.03913 68.5388 3.59138C68.9553 4.15517 69.3022 4.76714 69.5721 5.41404C69.8784 6.12207 70.108 6.88258 70.261 7.69578C70.4141 8.4996 70.4906 9.33659 70.4906 10.2073V12.963ZM67.0176 10.1789C67.0086 9.66092 66.9751 9.14371 66.9171 8.62895C66.8725 8.13927 66.786 7.6543 66.6588 7.17934C66.5154 6.65314 66.324 6.17475 66.0848 5.74435C65.8552 5.3042 65.5729 4.93096 65.2381 4.62485C64.9388 4.3553 64.5936 4.14148 64.219 3.99349C63.8364 3.84034 63.4012 3.76386 62.9132 3.76386C62.4444 3.76386 62.0233 3.84034 61.6503 3.9933C61.2771 4.13689 60.9518 4.33785 60.6744 4.59617C60.3394 4.91184 60.0573 5.28976 59.8276 5.72991C59.598 6.16051 59.421 6.64358 59.2966 7.17953C59.1778 7.66109 59.0915 8.15008 59.0383 8.6432C58.9903 9.15361 58.9663 9.666 58.9665 10.1787V12.963C58.9665 13.4703 58.9905 13.9724 59.0383 14.47C59.0837 14.9537 59.1653 15.4334 59.2823 15.9049C59.4066 16.4216 59.574 16.9049 59.7845 17.3546C60.0046 17.7947 60.2678 18.1678 60.5739 18.4739C60.8708 18.7611 61.2156 18.9942 61.5927 19.1628C61.9851 19.3255 62.4348 19.4067 62.9419 19.4067C63.4298 19.4067 63.87 19.3255 64.2621 19.1628C64.6641 19.0001 65.0084 18.78 65.2954 18.5026C65.6304 18.1869 65.9078 17.8138 66.1279 17.3832C66.3576 16.9431 66.5392 16.46 66.6732 15.9338C66.7901 15.4622 66.8716 14.9824 66.9171 14.4986C66.9747 13.9914 67.008 13.4796 67.0176 12.9632V10.1789ZM82.9488 17.211H76.3902L74.9694 22.0187H71.3817L78.1841 1.12313H81.241L87.9288 22.0187H84.3553L82.9488 17.211ZM77.2656 14.2546H82.102L79.7054 5.98823L77.2656 14.2546ZM104.104 3.97905H97.6601V22.0187H94.23V3.97905H87.8295V1.12313H104.104V3.97905ZM46.3577 35.676H44.4287L40.6429 27.6562L40.6349 35.676H38.6901V24.0226H40.6429L44.4047 32.0103L44.4207 24.0226H46.3577V35.676ZM55.1364 30.4495H50.3183V34.0913H55.9447V35.676H48.3893V24.0226H55.9047V25.6154H50.3183V28.8969H55.1364V30.4495ZM66.0042 25.6154H62.4104V35.676H60.4976V25.6154H56.928V24.0226H66.0042V25.6154ZM67.8839 35.676L66.363 24.0226H68.1478L68.9483 31.1778L69.0043 31.6342L69.0843 31.1538L70.2048 24.0226H71.6774L72.8381 31.1858L72.9181 31.6662L72.9741 31.1778L73.7824 24.0226H75.5752L74.0386 35.676H72.2218L71.0373 28.5447L70.9571 27.9924L70.8691 28.5447L69.7007 35.676H67.8839ZM84.5381 30.6257C84.5381 31.0951 84.4955 31.5487 84.4101 31.9864C84.3339 32.4104 84.2159 32.8259 84.0579 33.2268C83.8961 33.6102 83.6892 33.9729 83.4416 34.3073C83.2015 34.6275 82.9157 34.9107 82.5933 35.1478C82.2838 35.3611 81.9397 35.5292 81.5608 35.652C81.1874 35.7747 80.7765 35.8359 80.3281 35.8359C79.864 35.8359 79.4371 35.7719 79.0477 35.644C78.6635 35.5105 78.3193 35.3291 78.0152 35.0996C77.7012 34.8603 77.4259 34.5742 77.1989 34.2513C76.965 33.9122 76.7716 33.5469 76.6225 33.1628C76.4699 32.7724 76.3573 32.3675 76.2864 31.9544C76.2111 31.5155 76.1737 31.071 76.1744 30.6257V29.0889C76.1744 28.614 76.2144 28.1551 76.2944 27.7124C76.3708 27.2822 76.4915 26.8611 76.6545 26.4558C76.8031 26.0881 76.9938 25.739 77.2229 25.4153C77.4488 25.0987 77.7213 24.8181 78.0312 24.583C78.3301 24.3535 78.6688 24.1773 79.0477 24.0546C79.4318 23.9266 79.8532 23.8626 80.3121 23.8626C80.7765 23.8626 81.2034 23.9266 81.5928 24.0546C81.9822 24.1828 82.3318 24.3615 82.6413 24.591C82.9492 24.8189 83.2216 25.0913 83.4496 25.3993C83.6819 25.7137 83.8754 26.055 84.0259 26.4158C84.1966 26.8106 84.3246 27.2348 84.4101 27.6882C84.4955 28.1366 84.5381 28.6035 84.5381 29.0889V30.6257ZM82.6013 29.0729C82.5963 28.784 82.5776 28.4956 82.5453 28.2086C82.5204 27.9355 82.4721 27.6651 82.4011 27.4002C82.3211 27.1066 82.2144 26.8399 82.0809 26.5997C81.953 26.3543 81.7955 26.1463 81.6088 25.9756C81.4419 25.8252 81.2494 25.7059 81.0405 25.6234C80.8272 25.538 80.5843 25.4953 80.3121 25.4953C80.0507 25.4953 79.816 25.538 79.6078 25.6234C79.4064 25.6993 79.2216 25.8135 79.0637 25.9596C78.877 26.1356 78.7195 26.3463 78.5915 26.5917C78.4633 26.8319 78.3646 27.1013 78.2953 27.4002C78.2291 27.6688 78.1809 27.9415 78.1512 28.2166C78.1245 28.5012 78.1111 28.787 78.1112 29.0729V30.6257C78.1112 30.9084 78.1246 31.1886 78.1512 31.466C78.1779 31.7434 78.2234 32.0103 78.2874 32.2663C78.3532 32.5446 78.4471 32.8155 78.5675 33.0748C78.6902 33.3203 78.837 33.5283 79.0077 33.699C79.1732 33.8592 79.3655 33.9893 79.5758 34.0833C79.7947 34.1739 80.0454 34.2193 80.3281 34.2193C80.6003 34.2193 80.8457 34.1739 81.0646 34.0833C81.2886 33.9926 81.4808 33.8699 81.6408 33.715C81.8303 33.5352 81.9873 33.324 82.1049 33.0908C82.2374 32.834 82.3394 32.5627 82.4091 32.2823C82.4733 32.0263 82.5186 31.7594 82.5453 31.482C82.5773 31.1993 82.596 30.9139 82.6013 30.6257V29.0729ZM90.0035 31.1538H88.0345V35.676H86.1137V24.0226H89.8113C90.4142 24.0279 90.9693 24.1053 91.4761 24.2548C91.983 24.4042 92.4204 24.6229 92.7886 24.9111C93.1515 25.2046 93.4344 25.57 93.6371 26.0076C93.8398 26.4398 93.9413 26.9466 93.9413 27.5282C93.9413 27.9284 93.8878 28.2913 93.7811 28.6167C93.6851 28.9314 93.5392 29.2287 93.3489 29.4972C93.1613 29.7596 92.9345 29.9917 92.6766 30.1855C92.4059 30.3884 92.1133 30.5601 91.8043 30.6977L94.2934 35.572V35.676H92.2365L90.0035 31.1538ZM88.0345 29.5852H89.8353C90.1768 29.5797 90.4837 29.5292 90.7558 29.433C91.0333 29.3318 91.268 29.1876 91.4601 29.0009C91.6309 28.8409 91.7641 28.6434 91.8603 28.4087C91.9563 28.1738 92.0043 27.9071 92.0043 27.6082C92.0043 27.2721 91.951 26.9786 91.8443 26.7279C91.7429 26.4718 91.5909 26.2583 91.388 26.0876C91.2012 25.9276 90.9745 25.8074 90.7078 25.7274C90.4409 25.642 90.1422 25.5967 89.8113 25.5914H88.0345V29.5852ZM98.7262 30.6257L97.4695 32.0343V35.676H95.5247V24.0226H97.4695V29.5052L98.558 28.0886L101.631 24.0226H103.985L99.9987 29.1531L104.185 35.676H101.88L98.7262 30.6257ZM7.22229 14.6424C10.3763 14.7774 13.7635 17.2441 15.3958 19.5391C16.574 21.1958 17.5189 22.9999 17.9239 24.988H17.9362C18.3289 22.9999 19.2863 21.1958 20.4644 19.5391C22.0966 17.2441 25.4469 14.7774 28.6378 14.6424C31.1578 14.5357 33.2173 15.4207 34.8967 16.741C35.0686 16.876 35.2526 17.0233 34.9213 17.0968C34.5532 17.1583 34.1727 17.1827 33.7923 17.2318C29.8038 17.8332 26.0193 19.3793 23.2992 23.098C21.5353 25.5099 20.2556 28.4366 19.2494 31.2225C19.1511 31.5046 19.0653 31.787 18.9794 32.0693C18.6848 33.1002 18.4025 34.1188 18.0956 35.1375C18.0712 35.211 18.0098 35.4073 17.9485 35.4565H17.9239C17.8504 35.4196 17.8012 35.211 17.7766 35.1375C17.4707 34.118 17.1762 33.0952 16.893 32.0693C16.8071 31.787 16.709 31.5046 16.623 31.2225C15.6166 28.4366 14.3282 25.4789 12.5732 23.098C9.77854 19.3068 6.06865 17.8332 2.08015 17.2318C1.6997 17.195 1.31924 17.1583 0.951085 17.0968C0.619799 17.0233 0.803782 16.876 0.975668 16.741C2.77842 15.3245 4.91715 14.5406 7.22229 14.6424ZM14.0975 11.6601L17.8898 1.2039C17.8898 1.2039 17.9512 1.14264 17.9756 1.14264C17.9756 1.14264 18.0494 1.15493 18.0739 1.2039L21.8662 11.6601C21.952 11.8934 21.7801 11.8811 21.6697 11.8197C21.093 11.4884 19.657 10.85 17.9758 10.85C16.2944 10.85 14.8584 11.4884 14.2817 11.8197C14.1713 11.8811 13.9994 11.8934 14.0853 11.6601H14.0975Z" fill="black"/>
</svg>
